<?xml version="1.0" standalone="no"?>
<!DOCTYPE svg PUBLIC "-//W3C//DTD SVG 20010904//EN"
 "http://www.w3.org/TR/2001/REC-SVG-20010904/DTD/svg10.dtd">
<svg version="1.0" xmlns="http://www.w3.org/2000/svg"
 width="128.000000pt" height="128.000000pt" viewBox="0 0 128.000000 128.000000"
 preserveAspectRatio="xMidYMid meet">
<metadata>
Created by potrace 1.11, written by Peter Selinger 2001-2013
</metadata>
<g transform="translate(0.000000,128.000000) scale(0.100000,-0.100000)"
fill="#000000" stroke="none">
<path d="M578 713 c-3 -392 -3 -387 -67 -456 -104 -112 -296 -87 -369 48 -9
17 -18 66 -22 114 -3 55 -9 86 -17 89 -10 3 -13 -16 -13 -75 0 -61 5 -89 24
-128 78 -167 282 -206 409 -79 75 75 77 86 77 491 0 214 -4 353 -9 353 -6 0
-11 -143 -13 -357z"/>
<path d="M670 1055 c0 -13 21 -15 130 -15 l130 0 0 -445 c0 -290 3 -445 10
-445 7 0 10 155 10 445 l0 444 132 3 c94 2 133 7 136 16 3 9 -56 12 -272 12
-239 0 -276 -2 -276 -15z"/>
</g>
</svg>
