<?xml version="1.0" encoding="UTF-8" standalone="no"?>
<svg width="121px" height="30px" viewBox="0 0 121 30" version="1.1" xmlns="http://www.w3.org/2000/svg" xmlns:xlink="http://www.w3.org/1999/xlink">
    <!-- Generator: Sketch 41 (35326) - http://www.bohemiancoding.com/sketch -->
    <title>Group 3</title>
    <desc>Created with Sketch.</desc>
    <defs></defs>
    <g id="Page-1" stroke="none" stroke-width="1" fill="none" fill-rule="evenodd">
        <g id="Artboard" fill="#FFFFFF">
            <g id="Group-3">
                <g id="Group-5">
                    <g id="Group">
                        <g id="Logo">
                            <g id="Visual-Design">
                                <g id="Tax-Receipt">
                                    <g id="Logo">
                                        <path d="M45.7231443,17.7320878 L45.7231443,21.6546059 L42.9344014,21.6546059 L42.9344014,17.7745259 L39.1313069,11.6330152 L42.2917996,11.6330152 L44.3498621,15.1547525 L46.4236382,11.6330152 L49.5264455,11.6330152 L45.7231443,17.7320878 L45.7231443,17.7320878 L45.7231443,17.7320878 Z M36.4893617,29.0425532 L52.1276596,29.0425532 L52.1276596,6.70212766 L36.4893617,6.70212766 L36.4893617,29.0425532 L36.4893617,29.0425532 Z" id="Fill-1"></path>
                                        <path d="M62.5458956,21.6294953 C59.686535,21.6294953 57.3844075,19.3722335 57.3844075,16.2854162 L57.3844075,16.2565973 C57.3844075,13.244709 59.6288474,10.8828455 62.6598234,10.8828455 C64.7041143,10.8828455 66.0199702,11.7679039 66.906374,13.0382808 L64.8192827,14.7061441 C64.2471625,13.967955 63.5898548,13.4959665 62.6317033,13.4959665 C61.229833,13.4959665 60.2437681,14.7202333 60.2437681,16.2264977 L60.2437681,16.2565973 C60.2437681,17.8061967 61.229833,19.0165877 62.6317033,19.0165877 C63.675249,19.0165877 64.2903765,18.5142861 64.889583,17.7622213 L66.9783284,19.297091 C66.0346505,20.6404756 64.7618019,21.6294953 62.5458956,21.6294953 L62.5458956,21.6294953 L62.5458956,21.6294953 Z M54.3617021,29.0425532 L70,29.0425532 L70,0 L54.3617021,0 L54.3617021,29.0425532 L54.3617021,29.0425532 Z" id="Fill-2"></path>
                                        <path d="M31.3068307,21.7355069 L28.8756355,21.7355069 L24.6016609,16.298424 L24.6016609,21.7355069 L21.8562028,21.7355069 L21.8562028,11.8236567 L24.4439092,11.8236567 L28.5613727,17.0623388 L28.5613727,11.8236567 L31.3068307,11.8236567 L31.3068307,21.7355069 L31.3068307,21.7355069 L31.3068307,21.7355069 Z M18.6170213,29.0425532 L34.2553191,29.0425532 L34.2553191,4.46808511 L18.6170213,4.46808511 L18.6170213,29.0425532 L18.6170213,29.0425532 Z" id="Fill-3"></path>
                                        <polyline id="Fill-4" points="3.36669648 20.8510638 5.79846532 20.8510638 7.81207561 14.9084531 9.84149686 20.8510638 12.2724335 20.8510638 15.6382979 10.4545338 12.7475948 10.4545338 10.9915369 16.4278524 9.04990815 10.4255319 6.64747282 10.4255319 4.70542798 16.4278524 2.95020224 10.4545338 0 10.4545338 3.36669648 20.8510638"></polyline>
                                        <polygon id="Fill-5" points="0 29.0425532 15.6382979 29.0425532 15.6382979 23.8297872 0 23.8297872"></polygon>
                                    </g>
                                </g>
                            </g>
                        </g>
                    </g>
                </g>
                <text id="93.9-FM" font-family="OpenSans, Open Sans" font-size="11" font-weight="normal" letter-spacing="1">
                    <tspan x="75.8691406" y="27">93.9 FM</tspan>
                </text>
            </g>
        </g>
    </g>
</svg>